Coordinates
version=1
nRows=5
nColumns=40
inDegrees=yes

Units are S.I. units (second, meters, Newtons, ...)
If the header above contains a line with 'inDegrees', this indicates whether rotational values are in degrees (yes) or radians (no).

endheader
time	pelvis_tilt	pelvis_list	pelvis_rotation	pelvis_tx	pelvis_ty	pelvis_tz	hip_flexion_r	hip_adduction_r	hip_rotation_r	knee_angle_r	knee_angle_r_beta	ankle_angle_r	subtalar_angle_r	mtp_angle_r	hip_flexion_l	hip_adduction_l	hip_rotation_l	knee_angle_l	knee_angle_l_beta	ankle_angle_l	subtalar_angle_l	mtp_angle_l	lumbar_extension	lumbar_bending	lumbar_rotation	arm_flex_r	arm_add_r	arm_rot_r	elbow_flex_r	pro_sup_r	wrist_flex_r	wrist_dev_r	arm_flex_l	arm_add_l	arm_rot_l	elbow_flex_l	pro_sup_l	wrist_flex_l	wrist_dev_l
      3.00000000	      5.22363068	      5.30157939	      3.34066752	     -0.33566659	      1.09253901	     -0.76090869	      3.96015559	     -2.86770005	    -11.93045271	     18.08867419	      0.31570692	     -4.11972715	      0.00000000	      0.00000000	     18.70058938	     -3.45339741	     -2.19500604	     22.40818852	      0.39109667	     -5.01174358	      0.00000000	      0.00000000	     -7.82311063	      0.08400302	      2.99915082	     89.92704622	    -14.06439511	     35.45762492	     29.82795293	     80.84820586	      0.00000000	      0.00000000	     89.92232465	     -9.46291950	     32.89582197	     32.90539435	     83.87442238	      0.00000000	      0.00000000
      3.00500000	      5.26250205	      5.27268482	      3.35882872	     -0.33581046	      1.09249601	     -0.76056691	      3.93578382	     -2.80736587	    -11.94809065	     18.09645889	      0.31584279	     -4.10869787	      0.00000000	      0.00000000	     18.94031575	     -3.41772123	     -2.27209891	     22.16025331	      0.38676938	     -5.01655813	      0.00000000	      0.00000000	     -7.86375581	      0.10870392	      2.99956625	     89.92686831	    -14.07686827	     35.44693879	     29.84420469	     80.85917631	      0.00000000	      0.00000000	     89.92229712	     -9.45714005	     32.87794003	     32.91540902	     83.86297889	      0.00000000	      0.00000000
      3.01000000	      5.33658759	      5.26958477	      3.35292021	     -0.33603256	      1.09245295	     -0.76019239	      3.87812039	     -2.78101722	    -11.95310911	     18.10648334	      0.31601775	     -4.11040545	      0.00000000	      0.00000000	     19.20657593	     -3.37266238	     -2.29561519	     22.05782954	      0.38498175	     -5.00046939	      0.00000000	      0.00000000	     -7.94841534	      0.11476714	      3.02765812	     89.92717263	    -14.07935542	     35.43123754	     29.85809666	     80.85840576	      0.00000000	      0.00000000	     89.92270016	     -9.46893139	     32.85546475	     32.93289100	     83.85866123	      0.00000000	      0.00000000
      3.01500000	      5.31520719	      5.25353637	      3.34734391	     -0.33616090	      1.09236593	     -0.75981486	      3.93056044	     -2.74241305	    -11.95182531	     18.14346668	      0.31666323	     -4.10671551	      0.00000000	      0.00000000	     19.40345453	     -3.32134379	     -2.34947051	     21.60050538	      0.37699994	     -4.92520418	      0.00000000	      0.00000000	     -7.92258141	      0.11612032	      3.05734322	     89.92699879	    -14.11233048	     35.42322869	     29.86068342	     80.87511334	      0.00000000	      0.00000000	     89.92248294	     -9.46204613	     32.81124112	     32.95096599	     83.83969629	      0.00000000	      0.00000000
      3.02000000	      5.39157665	      5.25485498	      3.32416940	     -0.33634081	      1.09232650	     -0.75943806	      3.87351952	     -2.71974837	    -11.95527537	     18.15585725	      0.31687949	     -4.10758180	      0.00000000	      0.00000000	     19.65172924	     -3.26763636	     -2.35151767	     21.50944028	      0.37541055	     -4.91670084	      0.00000000	      0.00000000	     -8.00651629	      0.11624997	      3.09769640	     89.92700309	    -14.10767046	     35.41010697	     29.87560937	     80.87482835	      0.00000000	      0.00000000	     89.92260363	     -9.47660209	     32.78953147	     32.96466003	     83.83544592	      0.00000000	      0.00000000
